<svg width="16" height="17" viewBox="0 0 16 17" fill="none" xmlns="http://www.w3.org/2000/svg">
<g clip-path="url(#clip0_783_824)">
<path d="M7.99464 15.952C12.116 15.952 15.457 12.6132 15.457 8.49462C15.457 4.37604 12.116 1.03727 7.99464 1.03727C3.87326 1.03727 0.532227 4.37604 0.532227 8.49462C0.532227 12.6132 3.87326 15.952 7.99464 15.952Z" stroke="#666666" stroke-miterlimit="10" stroke-linecap="round"/>
<path d="M7.99463 5.16354V8.84923" stroke="#666666" stroke-miterlimit="10" stroke-linecap="round"/>
<path d="M8.02694 11.2992C8.02694 11.3242 8.00809 11.3365 7.99467 11.3365C7.98125 11.3365 7.9624 11.3242 7.9624 11.2992C7.9624 11.2742 7.98125 11.2619 7.99467 11.2619C8.00809 11.2619 8.02694 11.2742 8.02694 11.2992Z" fill="#A6A6A6" stroke="#666666"/>
</g>
<defs>
<clipPath id="clip0_783_824">
<rect width="16" height="16" fill="white" transform="translate(0 0.5)"/>
</clipPath>
</defs>
</svg>
